HIERARCHY
ROOT Hips
{
    OFFSET 0.000000 0.000000 0.000000
    CHANNELS 6 Xposition Yposition Zposition Zrotation Xrotation Yrotation
    JOINT Spine
    {
        OFFSET -0.000000 8.185774 0.000000
        CHANNELS 3 Zrotation Xrotation Yrotation
        JOINT Spine1
        {
            OFFSET -0.000000 23.949169 0.000000
            CHANNELS 3 Zrotation Xrotation Yrotation
            JOINT Neck
            {
                OFFSET -0.000000 23.850817 2.168256
                CHANNELS 3 Zrotation Xrotation Yrotation
                JOINT Head
                {
                    OFFSET -0.000000 13.975711 -1.996530
                    CHANNELS 3 Zrotation Xrotation Yrotation
                    End Site
                    {
                        OFFSET -0.000000 24.956627 0.000000
                    }
                }
            }
            JOINT LeftShoulder
            {
                OFFSET 3.979389 22.161966 -0.249083
                CHANNELS 3 Zrotation Xrotation Yrotation
                JOINT LeftArm
                {
                    OFFSET 10.812937 0.000000 0.000000
                    CHANNELS 3 Zrotation Xrotation Yrotation
                    JOINT LeftForeArm
                    {
                        OFFSET 31.697208 0.000000 0.000000
                        CHANNELS 3 Zrotation Xrotation Yrotation
                        JOINT LeftHand
                        {
                            OFFSET 27.047384 0.000000 0.000000
                            CHANNELS 3 Zrotation Xrotation Yrotation
                            End Site
                            {
                                OFFSET 14.973977 0.000000 0.000000
                            }
                        }
                    }
                }
            }
            JOINT RightShoulder
            {
                OFFSET -4.006446 22.161966 -0.249083
                CHANNELS 3 Zrotation Xrotation Yrotation
                JOINT RightArm
                {
                    OFFSET -10.812937 0.000000 0.000000
                    CHANNELS 3 Zrotation Xrotation Yrotation
                    JOINT RightForeArm
                    {
                        OFFSET -31.697208 0.000000 0.000000
                        CHANNELS 3 Zrotation Xrotation Yrotation
                        JOINT RightHand
                        {
                            OFFSET -27.047384 0.000000 0.000000
                            CHANNELS 3 Zrotation Xrotation Yrotation
                            End Site
                            {
                                OFFSET -14.973977 0.000000 0.000000
                            }
                        }
                    }
                }
            }
        }
    }
    JOINT LeftUpLeg
    {
        OFFSET 9.982651 0.000000 0.000000
        CHANNELS 3 Zrotation Xrotation Yrotation
        JOINT LeftLeg
        {
            OFFSET -0.000000 -38.511635 0.000000
            CHANNELS 3 Zrotation Xrotation Yrotation
            JOINT LeftFoot
            {
                OFFSET -0.000000 -44.789326 0.000000
                CHANNELS 3 Zrotation Xrotation Yrotation
                JOINT LeftToeBase
                {
                    OFFSET -0.000000 -6.488723 14.973977
                    CHANNELS 3 Zrotation Xrotation Yrotation
                    End Site
                    {
                        OFFSET -0.000000 0.000000 3.993060
                    }
                }
            }
        }
    }
    JOINT RightUpLeg
    {
        OFFSET -9.982651 0.000000 0.000000
        CHANNELS 3 Zrotation Xrotation Yrotation
        JOINT RightLeg
        {
            OFFSET -0.000000 -38.511635 0.000000
            CHANNELS 3 Zrotation Xrotation Yrotation
            JOINT RightFoot
            {
                OFFSET -0.000000 -44.789326 0.000000
                CHANNELS 3 Zrotation Xrotation Yrotation
                JOINT RightToeBase
                {
                    OFFSET -0.000000 -6.488723 14.973977
                    CHANNELS 3 Zrotation Xrotation Yrotation
                    End Site
                    {
                        OFFSET -0.000000 0.000000 3.993060
                    }
                }
            }
        }
    }
}
MOTION
Frames:    9
Frame Time:    0.008333
-9.932743    95.893135    19.018503    3.959569    5.193431    178.166641    4.321288    -12.103951    -0.287920    -0.136019    9.602304    -0.734808    7.433982    19.245317    1.894616    -12.041345    -43.146492    -3.970986    1.038617    7.585084    -5.677862    -50.137875    42.115208    -20.446550    7.006594    -3.504724    -17.668770    -24.895514    -2.268694    -0.665568    -1.908920    5.013272    4.012243    60.222431    31.995520    9.476242    -12.422529    -23.524567    45.223843    -13.765147    -16.576101    -18.109388    10.251595    9.188603    9.690457    2.462886    23.898003    -2.438018    -12.148192    -4.055394    11.224484    0.000000    0.000000    0.000000    14.012907    -8.682920    -0.947811    -16.073723    29.404305    -29.643562    1.772984    14.090369    15.619257    0.000000    0.000000    0.000000    
-9.837167    95.879807    18.938381    3.943202    5.189330    178.255905    4.367150    -12.082785    -0.294026    -0.189315    9.875224    -0.740078    7.494576    19.343102    1.915641    -12.121306    -43.244633    -3.991983    1.032093    7.534294    -5.784204    -50.236916    42.204880    -20.457050    6.763483    -3.328265    -17.277990    -24.575010    -2.183612    -0.536730    -1.782274    4.991423    4.101995    60.066109    32.075176    9.524863    -11.879589    -23.819752    45.537060    -15.158129    -16.740576    -18.956522    10.285566    9.134828    9.953652    2.717080    23.980236    -2.768875    -12.340518    -3.994836    11.126534    0.000000    0.000000    0.000000    14.058474    -8.746512    -1.002994    -16.063736    29.596937    -29.187498    1.879023    13.976848    15.087992    0.000000    0.000000    0.000000    
-9.731696    95.865562    18.867138    3.951268    5.175903    178.364990    4.351244    -12.075933    -0.334449    -0.074278    10.160621    -0.788336    7.394029    19.492916    1.910054    -12.099119    -43.440845    -3.999739    0.993436    7.549253    -5.887928    -50.290031    42.443020    -20.495840    6.527847    -3.591430    -17.014660    -24.329269    -2.525339    -0.416491    -1.881294    4.982100    4.193339    60.133934    32.441620    9.595705    -12.161093    -23.954277    45.332069    -14.992762    -16.838823    -18.798590    10.392006    9.068079    9.996250    2.819918    24.070133    -2.852032    -12.505786    -3.926120    10.982418    0.000000    0.000000    0.000000    14.136092    -8.859564    -1.073887    -16.060474    29.836126    -28.758808    1.949359    13.886043    14.583525    0.000000    0.000000    0.000000    
-9.634177    95.844421    18.795149    3.946914    5.160492    178.472076    4.377420    -12.062457    -0.349429    -0.094051    10.461450    -0.803515    7.443965    19.490541    1.898685    -12.122968    -43.486816    -4.027468    0.977610    7.606195    -5.956257    -50.153103    42.827831    -20.673887    6.478099    -3.751637    -16.765646    -24.218239    -2.724174    -0.340994    -1.755152    5.019657    4.232990    59.914986    32.327106    9.691797    -11.791642    -23.737230    45.563526    -15.074014    -16.697685    -18.978788    10.481582    9.008853    10.036263    2.918686    24.152899    -2.953193    -12.655231    -3.882529    10.860476    0.000000    0.000000    0.000000    14.199409    -8.967117    -1.141884    -16.067308    30.067924    -28.325615    2.014562    13.766348    14.102509    0.000000    0.000000    0.000000    
-9.534255    95.820152    18.723503    3.942034    5.146052    178.611343    4.318893    -12.113708    -0.389791    0.030783    10.882644    -0.851283    7.522833    19.231836    1.874212    -12.269332    -43.038540    -4.095993    0.966822    7.540266    -6.092669    -50.292805    42.827190    -20.691294    6.341253    -3.352930    -16.395645    -24.035028    -2.379741    -0.280083    -1.755605    5.033865    4.310267    59.793907    32.417225    9.793070    -11.707676    -23.709499    45.582634    -14.851162    -16.727522    -19.052408    10.573214    8.949641    10.034020    3.024695    24.217220    -3.058598    -12.835929    -3.843202    10.741474    0.000000    0.000000    0.000000    14.241776    -9.135889    -1.248801    -16.058283    30.394634    -27.982626    2.071466    13.658309    13.721373    0.000000    0.000000    0.000000    
-9.450934    95.788841    18.666054    3.926969    5.107383    178.734268    4.489834    -12.095427    -0.413075    -0.206454    11.172401    -0.868854    7.546564    19.531109    1.869627    -12.303810    -43.641468    -4.161915    1.010569    7.640203    -6.076787    -50.081532    43.100346    -20.921223    6.288639    -3.061146    -16.198643    -23.829491    -2.141716    -0.114875    -1.548328    5.066579    4.426314    59.594078    32.297031    9.922192    -11.316858    -23.498404    45.670322    -15.090500    -16.616640    -19.055508    10.591305    8.841925    10.203129    3.297215    24.294739    -3.334901    -13.048860    -3.819992    10.608527    0.000000    0.000000    0.000000    14.283797    -9.320548    -1.329957    -16.075773    30.687437    -27.406134    2.191808    13.554045    13.079428    0.000000    0.000000    0.000000    
-9.361476    95.762428    18.623095    3.916304    5.071047    178.850830    4.445366    -12.120973    -0.441647    -0.088054    11.587061    -0.904965    7.601948    19.405226    1.848863    -12.525091    -43.576851    -4.298466    1.044793    7.631679    -6.167034    -50.142448    43.242931    -21.065504    6.118979    -3.182166    -15.929826    -23.532307    -2.317651    -0.039751    -1.629465    5.024779    4.531648    59.649124    32.674896    9.908278    -11.383208    -23.720598    45.658489    -15.107139    -16.801050    -19.203680    10.673563    8.740725    10.225867    3.401641    24.382175    -3.526398    -13.203481    -3.818658    10.536215    0.000000    0.000000    0.000000    14.327057    -9.548443    -1.408065    -16.071707    31.060152    -26.688677    2.318450    13.409094    12.316674    0.000000    0.000000    0.000000    
-9.274003    95.731529    18.578070    3.908417    5.059287    179.008499    4.442934    -11.963900    -0.470021    -0.046064    11.714407    -0.931120    7.667180    19.400047    1.800644    -12.628734    -43.440434    -4.385371    0.938983    7.750257    -6.283664    -50.011375    43.393814    -21.187105    5.971216    -3.027058    -15.716475    -23.159952    -2.229660    0.131325    -1.459040    5.105079    4.582398    59.627369    32.687546    9.922474    -11.400053    -23.857388    45.544975    -14.659038    -17.024961    -19.194185    10.791493    8.662029    10.172388    3.439328    24.467766    -3.677637    -13.351155    -3.832272    10.473552    0.000000    0.000000    0.000000    14.373081    -9.771376    -1.529080    -16.086662    31.457121    -25.894947    2.461770    13.254999    11.488791    0.000000    0.000000    0.000000    
-9.206522    95.686630    18.553539    3.851029    5.024458    179.117371    4.422803    -11.937378    -0.464817    -0.046798    12.119428    -0.922471    7.692100    18.852026    1.758952    -12.476979    -42.762871    -4.315069    1.036166    7.733757    -6.332679    -50.006756    43.566299    -21.401291    5.975941    -2.713415    -15.439096    -22.999983    -1.937359    0.168974    -1.385913    5.057173    4.644958    59.617020    33.044434    9.904126    -11.471558    -24.002260    45.472507    -14.689044    -17.130173    -19.355614    10.848182    8.571626    10.159012    3.442604    24.550945    -3.807782    -13.442184    -3.874519    10.420728    0.000000    0.000000    0.000000    14.335848    -10.063702    -1.611616    -16.072422    31.922504    -25.141254    2.601473    13.064702    10.714810    0.000000    0.000000    0.000000    
